<svg width="40" height="40" viewBox="0 0 40 40" fill="none" xmlns="http://www.w3.org/2000/svg">
<path fill-rule="evenodd" clip-rule="evenodd" d="M22.3627 1.51448C20.9995 1.49976 19.6651 2.57536 20.1198 4.57585C20.241 5.12144 20.8775 5.66701 20.726 6.30353C20.5744 6.97036 20.0288 7.42502 19.8773 8.18278C19.6045 9.72862 21.12 11.3048 22.6052 11.032C26.6365 10.3955 26.9699 1.48417 22.3627 1.51448ZM30.2738 13.0022C31.2437 12.0322 32.2137 11.032 33.1836 10.062C33.8504 9.39521 34.79 8.75868 35.1538 7.81906C35.9418 5.81856 34.2141 4.39399 32.4258 4.4243C31.9995 4.49976 31.9995 4.4243 31.365 4.81833C29.9404 6.24292 28.5158 7.69783 27.0912 9.12242C26.5759 9.66801 26.0303 10.1833 25.515 10.7289C24.727 11.9716 25.3635 13.6387 26.2728 14.2449C26.9093 14.6389 28.1521 14.7298 28.8492 14.3358C29.4251 14.0024 29.8191 13.4568 30.2738 13.0022ZM33.0017 13.7296C31.8964 13.7428 31.3043 14.063 30.5769 14.4874C28.9704 15.427 27.2427 18.2156 29.6373 19.6705C30.5769 20.2464 31.8802 20.0039 32.6077 19.428C32.8502 19.2461 32.9714 18.8824 33.3048 18.7915C34.0323 18.5793 34.5476 19.0339 35.0325 19.1249C36.548 19.428 37.5483 18.2762 37.8514 17.3062C38.7304 14.5177 35.5478 13.6993 33.0017 13.7296Z" fill="#060606"/>
<path fill-rule="evenodd" clip-rule="evenodd" d="M31.5992 25.0342C31.174 24.366 30.5058 23.8497 29.9287 23.303C28.7746 22.1488 27.6204 20.9947 26.4662 19.8405C24.0061 17.3803 21.5762 14.9201 19.116 12.46C17.7796 11.1236 16.4433 9.3012 14.712 8.42039C14.1046 8.11667 13.3452 8.05592 12.6467 7.90405C12.0392 8.14703 11.4621 8.08628 10.9458 8.39001C9.42716 9.30119 9.36642 10.9109 8.48561 12.46C14.6816 18.6864 20.908 24.8824 27.1041 31.1088C27.5596 30.9569 28.0152 30.7747 28.4708 30.6228C30.3539 29.9546 31.5081 29.3472 31.9333 27.1907C32.1156 26.3706 31.9029 25.5202 31.5992 25.0342ZM5.20536 23.3637C9.03232 27.1907 12.8593 31.048 16.6862 34.875C18.9034 34.0853 21.1207 33.2956 23.3379 32.5059C17.9923 27.1603 12.6467 21.7844 7.30107 16.4388C6.6025 18.7471 5.90394 21.0554 5.20536 23.3637ZM1.71251 34.9965C1.31766 37.3656 3.32226 39.2487 5.7217 38.8234C8.27301 38.3982 10.3687 36.7885 12.8593 36.3329V36.3025C9.88276 33.326 6.90623 30.3495 3.92971 27.3729C3.26151 29.9242 2.1681 32.2629 1.71251 34.9965Z" fill="#00D4EA"/>
</svg>
